Coordinates
version=1
nRows=10
nColumns=40
inDegrees=yes

Units are S.I. units (second, meters, Newtons, ...)
Angles are in degrees.

endheader
time	pelvis_tilt	pelvis_list	pelvis_rotation	pelvis_tx	pelvis_ty	pelvis_tz	hip_flexion_r	hip_adduction_r	hip_rotation_r	knee_angle_r	knee_angle_r_beta	ankle_angle_r	subtalar_angle_r	mtp_angle_r	hip_flexion_l	hip_adduction_l	hip_rotation_l	knee_angle_l	knee_angle_l_beta	ankle_angle_l	subtalar_angle_l	mtp_angle_l	lumbar_extension	lumbar_bending	lumbar_rotation	arm_flex_r	arm_add_r	arm_rot_r	elbow_flex_r	pro_sup_r	wrist_flex_r	wrist_dev_r	arm_flex_l	arm_add_l	arm_rot_l	elbow_flex_l	pro_sup_l	wrist_flex_l	wrist_dev_l
     47.54500000	     -4.90466615	     -4.56987438	      4.29257370	      0.96475926	      0.93617972	      0.47760330	      8.09914882	      5.02127225	    -19.05015781	     11.93225125	     11.93225125	      9.88257565	      1.72664329	     -1.92933735	     35.35260585	    -10.90654628	     -1.25924932	     46.45049443	     46.45049443	      9.32889861	    -17.79390005	     14.02423394	     -8.30075192	      5.56360617	      4.31021563	     32.70541961	    -16.65207385	     -7.21915485	     66.65045271	     45.05621935	      0.00000000	      0.00000000	      1.60555584	     -6.37944587	      4.30312744	     22.17052068	     45.52742212	      0.00000000	      0.00000000
     47.55685714	     -5.01629551	     -4.42261787	      4.35643226	      0.96359060	      0.93614029	      0.47759453	      7.32858100	      5.00931538	    -19.22709604	     11.04294390	     11.04294390	     10.01171346	      2.47804892	     -1.96127497	     35.30828074	    -10.34886510	     -1.31434765	     42.37840710	     42.37840710	      9.10646793	    -17.51822769	     13.71335276	     -8.42301127	      5.38287217	      3.81637713	     34.61647306	    -15.99527912	     -7.31862686	     69.61518290	     44.98013515	      0.00000000	      0.00000000	      0.01951652	     -6.47229203	      4.69950069	     21.94059233	     45.41171413	      0.00000000	      0.00000000
     47.56871429	     -5.21133845	     -4.35530623	      4.37455548	      0.96233562	      0.93559748	      0.47754253	      6.87726332	      5.02794903	    -19.19590850	     10.58044624	     10.58044624	     10.25668183	      2.79069373	     -2.03772500	     35.31656524	     -9.89518923	     -1.32934196	     38.34923293	     38.34923293	      9.18410455	    -16.60381279	     13.69947675	     -8.38662102	      5.25787706	      3.88670073	     36.46413007	    -16.02531766	     -7.45552965	     71.30614858	     44.94287097	      0.00000000	      0.00000000	     -1.20515340	     -6.43380564	      4.90800357	     21.76753568	     45.34240014	      0.00000000	      0.00000000
     47.58057143	     -5.39367896	     -4.46037901	      4.47148135	      0.96124319	      0.93465086	      0.47729114	      6.38674470	      5.21423900	    -19.42481769	     10.08658783	     10.08658783	     10.58035545	      3.31730868	     -2.17298056	     35.23376533	     -9.59567268	     -1.27689200	     34.19444836	     34.19444836	      8.17662783	    -15.54377096	     10.79963548	     -8.34481137	      5.38607949	      4.13125796	     37.84498650	    -16.30461652	     -7.75414537	     73.99767246	     44.97222687	      0.00000000	      0.00000000	     -2.80313107	     -6.86818137	      8.28127765	     22.73375000	     44.69056903	      0.00000000	      0.00000000
     47.59242857	     -5.60167063	     -4.49287932	      4.52658027	      0.96014403	      0.93354351	      0.47693032	      5.96666982	      5.31765394	    -19.42752605	      9.67696679	      9.67696679	     10.93137182	      3.58189833	     -2.29901834	     35.23419113	     -9.23337002	     -1.20234836	     30.44353909	     30.44353909	      8.49862579	    -13.73177028	     11.19214120	     -8.21713448	      5.42440449	      4.20050170	     39.66362234	    -16.32360258	     -7.80485979	     75.29822400	     44.94325693	      0.00000000	      0.00000000	     -3.92140454	     -6.80981487	      8.39988869	     22.51419016	     44.65254741	      0.00000000	      0.00000000
     47.60428571	     -5.70215267	     -4.65149770	      4.66107936	      0.95924943	      0.93231087	      0.47638168	      5.32166608	      5.57238783	    -19.71227678	      9.07404858	      9.07404858	     11.27622247	      4.23964041	     -2.43603055	     35.18990504	     -9.01144829	     -1.12429915	     27.01915193	     27.01915193	      8.83870036	    -11.53407544	     11.34929757	     -8.21669444	      5.63988906	      4.02680487	     41.34125505	    -16.23797836	     -7.69481087	     77.29322110	     44.89337313	      0.00000000	      0.00000000	     -5.24179347	     -6.78897269	      8.68117687	     22.75686213	     44.58314137	      0.00000000	      0.00000000
     47.61614286	     -5.85002573	     -4.72452480	      4.75536196	      0.95839773	      0.93093642	      0.47569834	      4.83410712	      5.70466273	    -19.74655532	      8.69800569	      8.69800569	     11.68013579	      4.47503090	     -2.58426132	     35.10161493	     -8.69195078	     -1.08802170	     23.74921812	     23.74921812	      9.01550256	     -9.54092296	     11.69624690	     -8.09659689	      5.72383818	      4.10437468	     42.88735734	    -16.37210357	     -7.73022455	     78.44780041	     44.86838242	      0.00000000	      0.00000000	     -6.25989036	     -6.74093871	      8.81385631	     22.68081057	     44.54298236	      0.00000000	      0.00000000
     47.62800000	     -6.01946715	     -4.97548570	      4.90770745	      0.95758438	      0.92931984	      0.47483289	      4.39308947	      6.01380988	    -19.86924921	      8.33803223	      8.33803223	     12.06837936	      4.70051075	     -2.73845125	     35.21565511	     -8.51755718	     -0.97205810	     21.05917265	     21.05917265	      9.09089209	     -7.77738131	     12.03747256	     -7.92514414	      6.07267671	      4.15186988	     44.46499254	    -16.58665032	     -7.80811127	     79.50278235	     44.84645151	      0.00000000	      0.00000000	     -7.16968769	     -6.61225055	      8.91173362	     22.57775341	     44.50950147	      0.00000000	      0.00000000
     47.63985714	     -5.90062081	     -5.02814863	      5.03484489	      0.95732479	      0.92825966	      0.47394238	      3.38740218	      6.19208610	    -20.06828883	      7.59716935	      7.59716935	     12.39830667	      5.41577943	     -2.85502482	     34.87467868	     -8.29479721	     -1.46615530	     18.66436258	     18.66436258	      9.22510794	     -5.75503412	     12.35426474	     -8.08813769	      6.12240788	      3.92682237	     45.64021903	    -16.44604301	     -7.58533551	     81.26051770	     44.79569284	      0.00000000	      0.00000000	     -8.31117105	     -6.65961370	      9.14728229	     22.73047229	     44.44760270	      0.00000000	      0.00000000
     47.65171429	     -5.93009394	     -5.19454774	      5.16409766	      0.95697398	      0.92692866	      0.47291222	      2.68644929	      6.43465717	    -20.22458029	      7.10333094	      7.10333094	     12.73597098	      5.86818152	     -2.98374033	     34.82358777	     -8.12389549	     -1.85714320	     16.87086149	     16.87086149	      9.15056833	     -4.40507656	     12.66987405	     -8.03656519	      6.31734887	      3.93293041	     46.73312554	    -16.61053883	     -7.50769710	     82.52459679	     44.76543272	      0.00000000	      0.00000000	     -9.17710599	     -6.63889573	      9.37119552	     22.87303282	     44.39485350	      0.00000000	      0.00000000
